<?xml version="1.0" encoding="UTF-8"?>
<svg xmlns="http://www.w3.org/2000/svg" viewBox="0 0 128 128">
  <g transform="scale(2.6666667)">
    <rect fill="#00207a" x="0" y="0" width="48" height="48" rx="24" ry="24" transform="translate(0 48) rotate(-90)"/>
    <path fill="#7ffac9" d="M24.68,37.08c-3.49,0-6.78-1.36-9.25-3.83-2.47-2.47-3.83-5.76-3.83-9.25s1.36-6.78,3.83-9.25c2.47-2.47,5.76-3.83,9.25-3.83s6.78,1.36,9.25,3.83c.99,.99,.99,2.59,0,3.58-.48,.48-1.11,.74-1.79,.74s-1.31-.26-1.79-.74c-1.51-1.51-3.52-2.34-5.67-2.34s-4.16,.83-5.67,2.34c-1.52,1.51-2.35,3.53-2.35,5.67s.83,4.16,2.35,5.67c1.51,1.51,3.53,2.34,5.67,2.34s4.16-.83,5.67-2.34c.48-.48,1.11-.74,1.79-.74s1.31,.26,1.79,.74c.99,.99,.99,2.59,0,3.58-2.47,2.47-5.76,3.83-9.25,3.83Z"/>
  </g>
</svg>
